<?xml version="1.0" standalone="no"?>
<!DOCTYPE svg PUBLIC "-//W3C//DTD SVG 20010904//EN"
 "http://www.w3.org/TR/2001/REC-SVG-20010904/DTD/svg10.dtd">
<svg version="1.0" xmlns="http://www.w3.org/2000/svg"
 width="1024.000000pt" height="1536.000000pt" viewBox="0 0 1024.000000 1536.000000"
 preserveAspectRatio="xMidYMid meet">

<g transform="translate(0.000000,1536.000000) scale(0.100000,-0.100000)"
fill="#000000" stroke="none">
<path d="M0 7680 l0 -7680 5120 0 5120 0 0 7680 0 7680 -5120 0 -5120 0 0
-7680z m3749 4476 c-2 -2 -53 -6 -114 -8 -60 -3 -92 -2 -70 2 41 7 192 13 184
6z m181 -17 c8 -4 -23 -5 -70 -2 -47 3 -89 9 -95 14 -11 11 143 0 165 -12z
m2643 14 c-29 -2 -78 -2 -110 0 -32 2 -8 3 52 3 61 0 87 -1 58 -3z m-3053 -13
c0 -5 -2 -10 -4 -10 -3 0 -8 5 -11 10 -3 6 -1 10 4 10 6 0 11 -4 11 -10z
m2853 3 c-13 -2 -33 -2 -45 0 -13 2 -3 4 22 4 25 0 35 -2 23 -4z m340 0 c-13
-2 -35 -2 -50 0 -16 2 -5 4 22 4 28 0 40 -2 28 -4z m-2648 -28 c44 -10 87 -21
95 -27 11 -7 9 -8 -10 -4 -13 3 -60 13 -105 22 -44 9 -84 21 -90 27 -6 6 -3 7
10 4 11 -3 56 -13 100 -22z m2210 18 c-39 -9 -220 -53 -245 -59 -14 -4 -22 -4
-19 0 10 10 230 65 259 64 20 0 21 -1 5 -5z m498 0 c-7 -2 -19 -2 -25 0 -7 3
-2 5 12 5 14 0 19 -2 13 -5z m-3359 -11 c3 -5 -1 -9 -9 -9 -15 0 -58 -11 -140
-38 -27 -9 -61 -19 -75 -21 -44 -9 39 26 125 51 93 28 92 28 99 17z m3500 -16
c48 -14 91 -28 94 -32 4 -3 -3 -4 -14 0 -12 4 -64 18 -115 31 -52 13 -85 24
-74 25 11 0 60 -11 109 -24z m-2632 -57 c263 -97 542 -282 756 -501 50 -53 92
-98 92 -101 0 -4 -53 46 -117 111 -218 218 -487 393 -738 481 -49 18 -91 34
-94 36 -11 12 24 3 101 -26z m1698 9 c-249 -108 -347 -162 -493 -269 -84 -63
-196 -167 -278 -261 -38 -43 -69 -74 -69 -70 0 5 26 37 58 73 31 35 62 70 67
77 29 37 230 202 309 254 125 82 383 209 421 207 6 0 -1 -5 -15 -11z m1090 -4
c23 -9 39 -18 37 -20 -2 -3 -24 4 -48 15 -54 24 -45 27 11 5z m-3906 -20 c3
-8 2 -12 -4 -9 -5 3 -21 3 -35 -1 -20 -5 -23 -9 -14 -15 10 -6 7 -8 -9 -6 -32
2 -27 12 16 30 20 8 38 15 38 16 1 1 5 -6 8 -15z m769 -29 c60 -7 111 -16 114
-19 13 -13 -5 -15 -38 -6 -49 14 -186 30 -271 32 -50 1 -65 3 -48 9 27 8 71 5
243 -16z m3283 -22 c204 -114 381 -284 499 -478 33 -53 0 -12 -56 70 -106 155
-288 316 -464 410 -74 39 -83 45 -70 45 5 0 46 -21 91 -47z m-3661 19 c-16 -1
-75 -12 -129 -22 -54 -11 -102 -20 -105 -19 -8 1 40 21 59 25 8 1 29 5 45 8
95 17 132 22 145 17 9 -4 3 -7 -15 -9z m62 12 c-3 -3 -12 -4 -19 -1 -8 3 -5 6
6 6 11 1 17 -2 13 -5z m2965 -1 c-40 -2 -103 -2 -140 0 -37 2 -4 3 73 3 77 0
107 -2 67 -3z m-244 -10 c-10 -2 -26 -2 -35 0 -10 3 -2 5 17 5 19 0 27 -2 18
-5z m380 0 c-10 -2 -26 -2 -35 0 -10 3 -2 5 17 5 19 0 27 -2 18 -5z m-3660
-10 c-10 -2 -18 -9 -18 -15 0 -6 -3 -9 -6 -5 -10 10 6 27 24 26 15 -1 15 -2 0
-6z m3112 -23 c-62 -16 -116 -28 -117 -26 -2 2 31 13 74 24 102 27 114 30 138
30 11 0 -32 -12 -95 -28z m603 23 c-7 -2 -19 -2 -25 0 -7 3 -2 5 12 5 14 0 19
-2 13 -5z m-3456 -9 c-3 -3 -12 -4 -19 -1 -8 3 -5 6 6 6 11 1 17 -2 13 -5z
m3506 -1 c-7 -2 -19 -2 -25 0 -7 3 -2 5 12 5 14 0 19 -2 13 -5z m-3818 -19
c-11 -8 -27 -20 -35 -27 -8 -7 -19 -14 -25 -17 -37 -15 -74 -44 -68 -53 3 -7
3 -9 -2 -5 -4 4 -22 -2 -39 -14 -26 -19 -29 -19 -16 -3 15 19 187 135 199 135
3 0 -3 -7 -14 -16z m1165 -16 c77 -24 299 -124 320 -144 8 -8 -42 12 -111 45
-70 34 -169 75 -220 91 -51 17 -96 33 -99 37 -6 6 16 1 110 -29z m2715 22 c13
-5 14 -9 5 -9 -8 0 -24 4 -35 9 -13 5 -14 9 -5 9 8 0 24 -4 35 -9z m-3580 -20
c-3 -5 -11 -10 -16 -10 -6 0 -7 5 -4 10 3 6 11 10 16 10 6 0 7 -4 4 -10z
m3645 0 c18 -12 2 -12 -25 0 -13 6 -15 9 -5 9 8 0 22 -4 30 -9z m-3683 -16
c-3 -3 -12 -4 -19 -1 -8 3 -5 6 6 6 11 1 17 -2 13 -5z m2758 -4 c-11 -5 -54
-23 -96 -40 -168 -68 -359 -194 -507 -335 -53 -49 -90 -81 -84 -69 13 24 125
125 221 200 106 83 282 182 406 230 57 22 102 32 60 14z m-2809 -15 c-23 -17
-46 -20 -46 -4 0 5 3 8 8 6 4 -3 16 -1 27 4 30 11 32 10 11 -6z m3829 1 c19
-8 35 -17 35 -20 0 -5 -71 22 -79 30 -9 8 11 4 44 -10z m-3885 -21 c0 -2 -19
-14 -41 -26 -135 -69 -295 -203 -397 -331 -25 -32 -47 -58 -48 -58 -12 0 0 21
30 55 19 21 33 42 30 47 -3 4 3 11 13 15 27 10 60 48 57 66 -1 9 3 14 9 11 20
-7 80 53 73 72 -5 14 -4 15 9 4 10 -8 15 -9 15 -1 0 6 7 11 15 11 8 0 15 5 15
10 0 6 5 10 12 10 6 0 27 12 47 27 20 16 38 28 41 28 17 2 69 43 62 50 -4 5
-2 6 3 2 6 -3 17 -2 25 4 16 10 30 12 30 4z m4027 -55 c45 -28 85 -56 89 -62
4 -7 -7 -2 -24 11 -17 12 -62 40 -99 61 -37 22 -63 40 -57 40 5 0 47 -23 91
-50z m-4387 -17 c0 -5 -13 -17 -28 -27 l-27 -19 24 26 c26 28 31 32 31 20z
m1840 -111 c113 -79 222 -171 310 -261 117 -120 105 -113 189 -101 138 22 285
-34 394 -149 74 -79 148 -223 146 -285 0 -11 -8 6 -18 39 -29 99 -79 185 -145
250 -105 103 -242 153 -369 134 -34 -5 -68 -9 -76 -9 -7 0 -70 55 -140 123
-129 126 -233 211 -353 286 -38 24 -68 45 -68 47 0 8 65 -29 130 -74z m-1925
28 c-16 -16 -23 -30 -16 -30 7 0 10 -4 7 -9 -4 -5 0 -12 6 -14 10 -4 10 -6 0
-6 -7 -1 -15 6 -18 14 -4 8 -10 12 -15 9 -5 -3 -7 -10 -4 -15 4 -5 4 -9 1 -9
-20 0 -11 25 19 55 45 43 60 47 20 5z m4718 -95 c67 -68 144 -169 178 -229 32
-60 18 -42 -41 49 -32 49 -98 125 -168 195 -64 63 -96 99 -72 80 25 -19 71
-62 103 -95z m-4783 27 c0 -12 -44 -62 -53 -62 -4 0 5 16 20 35 30 37 33 40
33 27z m-73 -100 c-10 -10 -17 -23 -17 -28 0 -5 -14 -25 -31 -44 -35 -40 -30
-27 19 48 19 29 37 50 40 47 3 -2 -2 -13 -11 -23z m55 -166 c-25 -43 -42 -64
-54 -63 -10 1 -18 5 -18 10 0 5 7 7 15 4 9 -4 24 12 47 51 18 31 32 61 30 65
-1 5 2 6 7 3 5 -4 -7 -35 -27 -70z m5155 -32 c25 -52 43 -97 41 -99 -2 -2 -24
41 -50 96 -25 54 -44 99 -42 99 3 0 26 -43 51 -96z m-2333 52 c107 -49 221
-160 278 -268 32 -62 78 -199 77 -231 0 -12 -9 11 -19 52 -36 134 -106 258
-192 337 -53 49 -151 108 -216 129 -37 12 -39 14 -13 10 19 -3 58 -16 85 -29z
m-3003 -73 c-11 -21 -20 -35 -21 -31 0 12 33 78 38 74 2 -2 -6 -21 -17 -43z
m5209 -27 c0 -12 -5 -7 -19 24 -11 24 -11 24 3 6 9 -11 16 -24 16 -30z m-5080
-15 c-5 -11 -15 -32 -20 -47 -6 -15 -13 -25 -15 -22 -6 5 19 69 31 81 13 13
15 8 4 -12z m5110 -56 c0 -5 -5 -3 -10 5 -5 8 -10 20 -10 25 0 6 5 3 10 -5 5
-8 10 -19 10 -25z m-5280 -5 c-6 -11 -13 -20 -16 -20 -2 0 0 9 6 20 6 11 13
20 16 20 2 0 0 -9 -6 -20z m5304 -60 c5 -17 4 -20 -2 -10 -5 8 -13 26 -16 40
-5 17 -4 20 2 10 5 -8 13 -26 16 -40z m-5326 -22 c-6 -18 -13 -39 -15 -47 -2
-8 -6 -11 -9 -8 -7 7 17 87 27 87 4 0 2 -15 -3 -32z m135 11 c-8 -8 -13 -7
-18 2 -5 8 -4 10 3 5 7 -4 12 -2 12 5 0 7 3 9 7 6 4 -4 2 -12 -4 -18z m5334
-1 c-3 -8 -6 -5 -6 6 -1 11 2 17 5 13 3 -3 4 -12 1 -19z m-5347 -69 c0 -5 -5
-9 -11 -9 -5 0 -7 5 -4 10 3 6 1 10 -4 10 -6 0 -11 5 -11 11 0 8 5 8 15 -1 8
-7 15 -16 15 -21z m5227 -1 c-3 -8 -6 -5 -6 6 -1 11 2 17 5 13 3 -3 4 -12 1
-19z m140 0 c-3 -8 -6 -5 -6 6 -1 11 2 17 5 13 3 -3 4 -12 1 -19z m-5392 -88
c-12 -45 -14 -47 -10 -15 3 22 5 51 5 65 0 15 4 20 9 15 6 -6 5 -30 -4 -65z
m5262 48 c-3 -8 -6 -5 -6 6 -1 11 2 17 5 13 3 -3 4 -12 1 -19z m140 -10 c-3
-8 -6 -5 -6 6 -1 11 2 17 5 13 3 -3 4 -12 1 -19z m-5534 -28 c-3 -11 -7 -20
-9 -20 -2 0 -4 9 -4 20 0 11 4 20 9 20 5 0 7 -9 4 -20z m5404 -12 c-3 -8 -6
-5 -6 6 -1 11 2 17 5 13 3 -3 4 -12 1 -19z m140 -10 c-3 -7 -5 -2 -5 12 0 14
2 19 5 13 2 -7 2 -19 0 -25z m-130 -40 c-3 -8 -6 -5 -6 6 -1 11 2 17 5 13 3
-3 4 -12 1 -19z m140 -20 c-3 -7 -5 -2 -5 12 0 14 2 19 5 13 2 -7 2 -19 0 -25z
m-5570 -20 c-3 -7 -5 -2 -5 12 0 14 2 19 5 13 2 -7 2 -19 0 -25z m130 -50 c-2
-18 -4 -6 -4 27 0 33 2 48 4 33 2 -15 2 -42 0 -60z m5310 10 c-3 -7 -5 -2 -5
12 0 14 2 19 5 13 2 -7 2 -19 0 -25z m-5450 0 c-3 -8 -6 -5 -6 6 -1 11 2 17 5
13 3 -3 4 -12 1 -19z m3490 -55 c-2 -16 -4 -5 -4 22 0 28 2 40 4 28 2 -13 2
-35 0 -50z m-130 10 c-3 -10 -5 -2 -5 17 0 19 2 27 5 18 2 -10 2 -26 0 -35z
m2230 -15 c-2 -13 -4 -3 -4 22 0 25 2 35 4 23 2 -13 2 -33 0 -45z m-5585 -110
c2 -53 0 -94 -4 -91 -5 2 -7 57 -7 121 2 130 7 117 11 -30z m3365 -20 c-2 -24
-4 -5 -4 42 0 47 2 66 4 43 2 -24 2 -62 0 -85z m130 20 c-2 -13 -4 -3 -4 22 0
25 2 35 4 23 2 -13 2 -33 0 -45z m2090 -50 c-2 -13 -4 -3 -4 22 0 25 2 35 4
23 2 -13 2 -33 0 -45z m-5435 -118 c6 -47 12 -87 13 -90 10 -39 29 -104 42
-138 9 -23 13 -45 10 -48 -10 -10 -58 157 -75 261 -10 55 -15 118 -12 140 l4
40 3 -40 c1 -22 8 -78 15 -125z m3335 63 c-2 -16 -4 -5 -4 22 0 28 2 40 4 28
2 -13 2 -35 0 -50z m1960 15 c-3 -7 -5 -2 -5 12 0 14 2 19 5 13 2 -7 2 -19 0
-25z m-2090 -170 c-2 -35 -3 -7 -3 62 0 69 1 97 3 63 2 -35 2 -91 0 -125z
m-3335 55 c-6 -34 -9 -26 -15 42 -6 60 -6 60 7 21 7 -22 10 -50 8 -63z m3455
-55 c-2 -24 -4 -5 -4 42 0 47 2 66 4 43 2 -24 2 -62 0 -85z m2100 100 c-3 -8
-6 -5 -6 6 -1 11 2 17 5 13 3 -3 4 -12 1 -19z m-5527 -163 c0 -7 6 -16 13 -18
7 -4 6 -6 -4 -6 -9 -1 -20 6 -23 15 -9 23 -7 36 4 29 6 -3 10 -12 10 -20z
m3449 -35 c1 -13 0 -13 -9 0 -5 8 -9 24 -9 35 l0 20 9 -20 c5 -11 9 -27 9 -35z
m-84 -102 c25 -49 46 -81 160 -247 25 -36 45 -69 45 -74 0 -5 -22 24 -50 64
-27 41 -70 103 -94 138 -54 77 -102 174 -110 221 -5 32 -4 32 9 -7 7 -23 25
-66 40 -95z m-3336 17 c1 -33 -15 3 -22 50 l-6 40 14 -35 c7 -19 14 -44 14
-55z m3525 -115 c19 -31 21 -38 6 -21 -23 26 -110 183 -110 197 0 5 17 -23 39
-61 21 -39 50 -90 65 -115z m-3266 -146 c-5 -5 -105 195 -113 226 -3 14 21
-31 55 -99 34 -68 60 -125 58 -127z m-224 186 c3 -20 12 -30 23 -30 14 0 15
-2 5 -9 -11 -7 -11 -15 2 -46 9 -21 14 -40 11 -43 -2 -3 -9 6 -14 19 -70 176
-68 167 -47 150 7 -6 16 -25 20 -41z m5207 -37 c-12 -20 -14 -14 -5 12 4 9 9
14 11 11 3 -2 0 -13 -6 -23z m-28 -58 c-3 -9 -8 -14 -10 -11 -3 3 -2 9 2 15 9
16 15 13 8 -4z m-1613 -57 c22 -33 40 -66 40 -72 0 -6 -14 12 -30 39 -17 28
-37 60 -46 73 -9 12 -14 22 -10 22 4 0 24 -28 46 -62z m-3428 -128 c39 -63 91
-142 116 -175 147 -193 400 -449 732 -740 636 -559 872 -787 1090 -1052 41
-48 80 -96 88 -105 8 -10 13 -18 10 -18 -3 0 -42 44 -86 98 -219 267 -456 496
-1117 1077 -481 422 -747 718 -889 990 -45 85 -37 74 56 -75z m166 -15 c130
-195 391 -464 772 -796 478 -417 829 -748 1000 -944 24 -27 -33 30 -128 127
-191 196 -541 520 -853 788 -290 250 -551 503 -677 655 -65 78 -182 245 -182
258 0 14 -1 15 68 -88z m4962 75 c-6 -11 -13 -20 -16 -20 -2 0 0 9 6 20 6 11
13 20 16 20 2 0 0 -9 -6 -20z m-1653 -82 c-2 -13 -4 -3 -4 22 0 25 2 35 4 23
2 -13 2 -33 0 -45z m1463 32 c-6 -11 -13 -20 -16 -20 -2 0 0 9 6 20 6 11 13
20 16 20 2 0 0 -9 -6 -20z m160 0 c-6 -11 -13 -20 -16 -20 -2 0 0 9 6 20 6 11
13 20 16 20 2 0 0 -9 -6 -20z m-1756 -68 c-17 -15 -54 -45 -82 -66 -76 -59
-88 -100 -52 -171 11 -21 18 -41 15 -43 -7 -8 -45 81 -45 106 0 42 30 82 105
138 41 30 75 60 75 66 0 6 3 8 7 4 5 -4 -6 -20 -23 -34z m1556 8 c-12 -16 -24
-30 -26 -30 -3 0 4 14 16 30 12 17 24 30 26 30 3 0 -4 -13 -16 -30z m-1438
-27 c-14 -26 -53 -60 -109 -97 -38 -25 -49 -38 -54 -66 l-6 -35 -2 32 c-1 33
6 41 97 104 24 17 51 43 60 59 18 31 30 34 14 3z m1588 3 c0 -2 -8 -10 -17
-17 -16 -13 -17 -12 -4 4 13 16 21 21 21 13z m-210 -56 c-17 -22 -34 -40 -37
-40 -2 0 10 18 27 40 17 22 34 40 37 40 2 0 -10 -18 -27 -40z m140 -40 c-11
-16 -26 -33 -32 -36 -7 -4 1 9 16 29 34 44 46 50 16 7z m-180 -13 c0 -2 -12
-14 -27 -28 l-28 -24 24 28 c23 25 31 32 31 24z m140 -41 c0 -2 -8 -10 -17
-17 -16 -13 -17 -12 -4 4 13 16 21 21 21 13z m-200 -29 c0 -1 -71 -72 -157
-157 l-158 -155 155 158 c144 146 160 162 160 154z m170 -10 c0 -2 -12 -14
-27 -28 l-28 -24 24 28 c23 25 31 32 31 24z m-1571 -92 c0 -5 -8 6 -19 25 -11
19 -19 40 -19 45 0 6 8 -6 19 -25 11 -19 19 -39 19 -45z m1521 32 c0 -2 -17
-19 -37 -38 l-38 -34 34 38 c33 34 41 42 41 34z m-1637 -85 c-10 -15 -21 -34
-25 -42 -5 -11 -7 -11 -7 -2 -1 8 8 25 19 39 11 14 21 35 21 47 1 17 2 18 6 3
3 -10 -4 -30 -14 -45z m124 16 c-3 -8 -6 -5 -6 6 -1 11 2 17 5 13 3 -3 4 -12
1 -19z m-7 -27 c0 -5 -9 -19 -20 -32 l-20 -24 17 32 c19 34 23 39 23 24z
m1430 -4 c0 -1 -46 -47 -102 -102 l-103 -100 100 103 c93 95 105 107 105 99z
m-1451 -127 c0 -9 -4 -8 -9 5 -5 11 -9 27 -9 35 0 9 4 8 9 -5 5 -11 9 -27 9
-35z m-109 26 c0 -8 -18 -36 -40 -61 -22 -25 -40 -43 -40 -39 0 3 16 24 35 45
19 22 35 46 35 54 0 8 2 15 5 15 3 0 5 -6 5 -14z m100 -60 c0 -7 -17 -26 -37
-41 l-38 -27 33 31 c17 17 32 35 32 41 0 5 2 10 5 10 3 0 5 -6 5 -14z m1080
-9 c0 -2 -19 -21 -42 -42 l-43 -40 40 43 c36 39 45 47 45 39z m-1263 -144 c-2
-21 -4 -6 -4 32 0 39 2 55 4 38 2 -18 2 -50 0 -70z m110 45 c-3 -7 -5 -2 -5
12 0 14 2 19 5 13 2 -7 2 -19 0 -25z m1273 19 c0 -2 -19 -21 -42 -42 l-43 -40
40 43 c36 39 45 47 45 39z m-4498 -117 c715 -358 1321 -826 1718 -1327 74 -94
35 -56 -56 55 -192 231 -515 533 -769 715 -316 228 -615 409 -947 572 -137 68
-180 78 -198 46 -7 -13 -10 -396 -10 -1168 0 -931 2 -1153 13 -1167 7 -10 100
-50 213 -90 202 -74 428 -166 422 -172 -2 -2 -64 22 -138 52 -74 30 -216 84
-314 120 -99 36 -185 73 -192 82 -11 14 -13 247 -14 1176 0 1065 1 1161 17
1178 9 10 29 18 45 18 16 0 107 -39 210 -90z m4258 87 c0 -2 -12 -14 -27 -28
l-28 -24 24 28 c23 25 31 32 31 24z m1044 -13 c24 -24 19 -30 -6 -8 -13 10
-25 20 -27 21 -2 2 1 3 7 3 6 0 18 -7 26 -16z m-98 -9 c-11 -8 -25 -15 -30
-15 -6 1 0 7 14 15 32 19 40 18 16 0z m-1969 -52 c-3 -10 -5 -4 -5 12 0 17 2
24 5 18 2 -7 2 -21 0 -30z m943 4 c0 -2 -12 -14 -27 -28 l-28 -24 24 28 c23
25 31 32 31 24z m210 0 c0 -2 -15 -16 -32 -33 l-33 -29 29 33 c28 30 36 37 36
29z m-1296 -69 c-25 -49 -62 -94 -92 -114 -16 -10 -9 1 20 30 25 25 54 66 65
91 10 24 19 41 21 36 2 -6 -4 -25 -14 -43z m133 10 c-3 -7 -5 -2 -5 12 0 14 2
19 5 13 2 -7 2 -19 0 -25z m883 -1 c0 -2 -12 -14 -27 -28 l-28 -24 24 28 c23
25 31 32 31 24z m200 -10 c0 -2 -15 -16 -32 -33 l-33 -29 29 33 c28 30 36 37
36 29z m-1110 -56 c-35 -69 -149 -181 -183 -181 -6 0 9 13 34 28 56 36 113
100 141 157 12 25 23 43 26 41 2 -2 -6 -23 -18 -45z m-3195 -43 c192 -96 489
-271 648 -382 329 -230 609 -469 810 -691 102 -112 203 -235 194 -235 -3 0
-24 24 -47 53 -129 163 -375 409 -575 574 -169 140 -433 325 -677 474 -130 79
-414 231 -455 244 l-23 6 0 -1041 0 -1040 28 -10 c98 -36 192 -74 189 -77 -5
-4 -198 67 -214 80 -10 7 -13 228 -13 1042 0 569 3 1040 6 1049 7 17 -5 21
129 -46z m4025 39 c0 -2 -10 -12 -22 -23 l-23 -19 19 23 c18 21 26 27 26 19z
m190 -20 c0 -2 -10 -12 -22 -23 l-23 -19 19 23 c18 21 26 27 26 19z m-260 -40
c0 -2 -12 -14 -27 -28 l-28 -24 24 28 c23 25 31 32 31 24z m-1392 -14 c-21 -2
-55 -2 -75 0 -21 2 -4 4 37 4 41 0 58 -2 38 -4z m-125 -10 c-7 -2 -19 -2 -25
0 -7 3 -2 5 12 5 14 0 19 -2 13 -5z m230 0 c-7 -2 -21 -2 -30 0 -10 3 -4 5 12
5 17 0 24 -2 18 -5z m267 -3 c-8 -5 -22 -9 -30 -9 -10 0 -8 3 5 9 27 12 43 12
25 0z m-177 -7 c-13 -2 -35 -2 -50 0 -16 2 -5 4 22 4 28 0 40 -2 28 -4z m1377
4 c0 -2 -10 -12 -22 -23 l-23 -19 19 23 c18 21 26 27 26 19z m-1834 -70 c-35
-34 -73 -80 -84 -102 -12 -22 -21 -35 -22 -30 -1 26 71 120 128 168 52 42 46
32 -22 -36z m557 56 c-13 -2 -33 -2 -45 0 -13 2 -3 4 22 4 25 0 35 -2 23 -4z
m1007 -36 c0 -2 -10 -12 -22 -23 l-23 -19 19 23 c18 21 26 27 26 19z m190 -20
c0 -2 -10 -12 -22 -23 l-23 -19 19 23 c18 21 26 27 26 19z m-1522 -34 c-10 -2
-26 -2 -35 0 -10 3 -2 5 17 5 19 0 27 -2 18 -5z m120 0 c-16 -2 -40 -2 -55 0
-16 2 -3 4 27 4 30 0 43 -2 28 -4z m-216 -24 c-51 -25 -85 -68 -119 -146 -13
-32 -21 -44 -18 -28 16 78 115 195 163 195 9 0 -2 -10 -26 -21z m291 14 c-7
-2 -19 -2 -25 0 -7 3 -2 5 12 5 14 0 19 -2 13 -5z m1067 4 c0 -2 -12 -14 -27
-28 l-28 -24 24 28 c23 25 31 32 31 24z m-1007 -14 c-7 -2 -19 -2 -25 0 -7 3
-2 5 12 5 14 0 19 -2 13 -5z m124 1 c-3 -3 -12 -4 -19 -1 -8 3 -5 6 6 6 11 1
17 -2 13 -5z m1073 -7 c0 -2 -10 -12 -22 -23 l-23 -19 19 23 c18 21 26 27 26
19z m-270 -50 c0 -2 -19 -21 -42 -42 l-43 -40 40 43 c36 39 45 47 45 39z m200
-10 c0 -2 -17 -19 -37 -38 l-38 -34 34 38 c33 34 41 42 41 34z m-1729 -54
c-12 -20 -14 -14 -5 12 4 9 9 14 11 11 3 -2 0 -13 -6 -23z m-14 -45 c-3 -8 -6
-5 -6 6 -1 11 2 17 5 13 3 -3 4 -12 1 -19z m1653 19 c0 -2 -15 -16 -32 -33
l-33 -29 29 33 c28 30 36 37 36 29z m-220 -10 c0 -1 -26 -27 -57 -57 l-58 -55
55 58 c50 53 60 62 60 54z m100 -102 c-24 -25 -46 -45 -49 -45 -3 0 15 20 39
45 24 25 46 45 49 45 3 0 -15 -20 -39 -45z m-1553 13 c-3 -8 -6 -5 -6 6 -1 11
2 17 5 13 3 -3 4 -12 1 -19z m2003 18 c0 -2 -8 -10 -17 -17 -16 -13 -17 -12
-4 4 13 16 21 21 21 13z m-1873 -48 c-3 -7 -5 -2 -5 12 0 14 2 19 5 13 2 -7 2
-19 0 -25z m-140 -20 c-3 -7 -5 -2 -5 12 0 14 2 19 5 13 2 -7 2 -19 0 -25z
m1343 29 c0 -1 -62 -63 -137 -137 l-138 -135 135 138 c125 127 140 142 140
134z m-1213 -64 c-3 -10 -5 -4 -5 12 0 17 2 24 5 18 2 -7 2 -21 0 -30z m1793
33 c0 -2 -8 -10 -17 -17 -16 -13 -17 -12 -4 4 13 16 21 21 21 13z m-1933 -68
c-2 -13 -4 -5 -4 17 -1 22 1 32 4 23 2 -10 2 -28 0 -40z m1493 39 c0 -1 -71
-72 -157 -157 l-158 -155 155 158 c144 146 160 162 160 154z m400 0 c0 -2 -10
-12 -22 -23 l-23 -19 19 23 c18 21 26 27 26 19z m-1763 -99 c-2 -13 -4 -3 -4
22 0 25 2 35 4 23 2 -13 2 -33 0 -45z m1703 48 c0 -2 -8 -10 -17 -17 -16 -13
-17 -12 -4 4 13 16 21 21 21 13z m190 -20 c0 -2 -8 -10 -17 -17 -16 -13 -17
-12 -4 4 13 16 21 21 21 13z m-240 -19 c0 -2 -12 -14 -27 -28 l-28 -24 24 28
c23 25 31 32 31 24z m-1793 -159 c-2 -29 -3 -6 -3 52 0 58 1 81 3 53 2 -29 2
-77 0 -105z m1943 108 c0 -2 -8 -10 -17 -17 -16 -13 -17 -12 -4 4 13 16 21 21
21 13z m-220 -9 c0 -2 -15 -16 -32 -33 l-33 -29 29 33 c28 30 36 37 36 29z
m160 -41 c0 -2 -8 -10 -17 -17 -16 -13 -17 -12 -4 4 13 16 21 21 21 13z
m-1743 -108 c-2 -18 -4 -6 -4 27 0 33 2 48 4 33 2 -15 2 -42 0 -60z m913 37
c-24 -25 -46 -45 -49 -45 -3 0 15 20 39 45 24 25 46 45 49 45 3 0 -15 -20 -39
-45z m580 32 c0 -1 -28 -29 -62 -62 l-63 -60 60 63 c55 58 65 67 65 59z m180
-20 c0 -2 -12 -14 -27 -28 l-28 -24 24 28 c23 25 31 32 31 24z m-810 -70 c0
-2 -17 -19 -37 -38 l-38 -34 34 38 c33 34 41 42 41 34z m720 -10 c0 -2 -17
-19 -37 -38 l-38 -34 34 38 c33 34 41 42 41 34z m-1713 -54 c-3 -10 -5 -4 -5
12 0 17 2 24 5 18 2 -7 2 -21 0 -30z m1153 34 c0 -2 -15 -16 -32 -33 l-33 -29
29 33 c28 30 36 37 36 29z m-1013 -29 c-3 -8 -6 -5 -6 6 -1 11 2 17 5 13 3 -3
4 -12 1 -19z m-230 -70 c38 -46 75 -92 83 -103 12 -18 12 -18 -1 -5 -26 25
-160 190 -155 190 3 0 36 -37 73 -82z m1573 79 c0 -1 -26 -27 -57 -57 l-58
-55 55 58 c50 53 60 62 60 54z m-560 -30 c0 -2 -10 -12 -22 -23 l-23 -19 19
23 c18 21 26 27 26 19z m-913 -49 c-3 -8 -6 -5 -6 6 -1 11 2 17 5 13 3 -3 4
-12 1 -19z m140 0 c-3 -8 -6 -5 -6 6 -1 11 2 17 5 13 3 -3 4 -12 1 -19z m923
9 c0 -2 -12 -14 -27 -28 l-28 -24 24 28 c23 25 31 32 31 24z m-230 -57 c-17
-22 -34 -40 -37 -40 -2 0 10 18 27 40 17 22 34 40 37 40 2 0 -10 -18 -27 -40z
m-683 -2 c-3 -8 -6 -5 -6 6 -1 11 2 17 5 13 3 -3 4 -12 1 -19z m-140 -10 c-3
-8 -6 -5 -6 6 -1 11 2 17 5 13 3 -3 4 -12 1 -19z m993 -2 c0 -2 -8 -10 -17
-17 -16 -13 -17 -12 -4 4 13 16 21 21 21 13z m330 -9 c0 -2 -15 -16 -32 -33
l-33 -29 29 33 c28 30 36 37 36 29z m-1173 -29 c-3 -8 -6 -5 -6 6 -1 11 2 17
5 13 3 -3 4 -12 1 -19z m1343 19 c0 -2 -19 -21 -42 -42 l-43 -40 40 43 c36 39
45 47 45 39z m-710 -21 c0 -2 -8 -10 -17 -17 -16 -13 -17 -12 -4 4 13 16 21
21 21 13z m170 -10 c0 -2 -8 -10 -17 -17 -16 -13 -17 -12 -4 4 13 16 21 21 21
13z m-220 -56 c-12 -16 -24 -30 -26 -30 -3 0 4 14 16 30 12 17 24 30 26 30 3
0 -4 -13 -16 -30z m190 16 c0 -2 -8 -10 -17 -17 -16 -13 -17 -12 -4 4 13 16
21 21 21 13z m330 0 c0 -2 -8 -10 -17 -17 -16 -13 -17 -12 -4 4 13 16 21 21
21 13z m-360 -39 c0 -2 -10 -12 -22 -23 l-23 -19 19 23 c18 21 26 27 26 19z
m490 -10 c0 -2 -10 -12 -22 -23 l-23 -19 19 23 c18 21 26 27 26 19z m-1489
-24 c13 -16 12 -17 -3 -4 -10 7 -18 15 -18 17 0 8 8 3 21 -13z m1309 13 c0 -2
-8 -10 -17 -17 -16 -13 -17 -12 -4 4 13 16 21 21 21 13z m-1013 -38 c-3 -8 -6
-5 -6 6 -1 11 2 17 5 13 3 -3 4 -12 1 -19z m-211 -93 c23 -42 5 -21 -40 45
-31 44 -32 48 -8 20 17 -19 38 -48 48 -65z m1184 81 c0 -2 -8 -10 -17 -17 -16
-13 -17 -12 -4 4 13 16 21 21 21 13z m160 -9 c0 -2 -10 -12 -22 -23 l-23 -19
19 23 c18 21 26 27 26 19z m-1699 -34 c13 -16 12 -17 -3 -4 -10 7 -18 15 -18
17 0 8 8 3 21 -13z m39 -53 c12 -16 19 -30 16 -30 -2 0 -14 14 -26 30 -12 17
-19 30 -16 30 2 0 14 -13 26 -30z m930 -20 c-6 -11 -13 -20 -16 -20 -2 0 0 9
6 20 6 11 13 20 16 20 2 0 0 -9 -6 -20z m-1069 -7 c13 -16 12 -17 -3 -4 -10 7
-18 15 -18 17 0 8 8 3 21 -13z m207 -70 c47 -71 54 -83 49 -83 -2 0 -25 32
-51 70 -25 39 -44 70 -41 70 2 0 22 -26 43 -57z m-121 -50 c64 -94 83 -125 66
-108 -18 18 -145 207 -135 201 5 -3 36 -45 69 -93z m423 77 c6 -11 8 -20 6
-20 -3 0 -10 9 -16 20 -6 11 -8 20 -6 20 3 0 10 -9 16 -20z m30 -50 c6 -11 8
-20 6 -20 -3 0 -10 9 -16 20 -6 11 -8 20 -6 20 3 0 10 -9 16 -20z m450 -40
c-6 -11 -13 -20 -16 -20 -2 0 0 9 6 20 6 11 13 20 16 20 2 0 0 -9 -6 -20z
m-415 -20 c9 -16 13 -30 11 -30 -3 0 -12 14 -21 30 -9 17 -13 30 -11 30 3 0
12 -13 21 -30z m-275 -60 c6 -11 8 -20 6 -20 -3 0 -10 9 -16 20 -6 11 -8 20
-6 20 3 0 10 -9 16 -20z m30 -50 c6 -11 8 -20 6 -20 -3 0 -10 9 -16 20 -6 11
-8 20 -6 20 3 0 10 -9 16 -20z m40 -70 c6 -11 8 -20 6 -20 -3 0 -10 9 -16 20
-6 11 -8 20 -6 20 3 0 10 -9 16 -20z m-135 -20 c9 -16 13 -30 11 -30 -3 0 -12
14 -21 30 -9 17 -13 30 -11 30 3 0 12 -13 21 -30z m465 -65 c0 -5 -5 -3 -10 5
-5 8 -10 20 -10 25 0 6 5 3 10 -5 5 -8 10 -19 10 -25z m-406 -41 c3 -8 2 -12
-4 -9 -6 3 -10 10 -10 16 0 14 7 11 14 -7z m75 -159 c0 -5 -11 10 -24 35 -13
25 -24 50 -24 55 0 6 11 -10 24 -35 13 -25 24 -49 24 -55z m111 60 c0 -5 -5
-3 -10 5 -5 8 -10 20 -10 25 0 6 5 3 10 -5 5 -8 10 -19 10 -25z m3145 -245
c-10 -11 -22 -20 -28 -20 -5 0 1 9 14 20 31 25 37 25 14 0z m-5145 -6 c23 -9
39 -18 37 -20 -2 -3 -24 4 -48 15 -54 24 -45 27 11 5z m150 -61 c50 -20 88
-38 86 -40 -3 -4 -176 65 -185 73 -11 10 17 1 99 -33z m2228 -4 c-3 -8 -7 -3
-11 10 -4 17 -3 21 5 13 5 -5 8 -16 6 -23z m-2078 -59 c19 -11 31 -19 25 -19
-5 0 -26 8 -45 19 -19 11 -30 19 -25 19 6 0 26 -8 45 -19z m100 -45 c25 -13
41 -24 35 -24 -5 0 -30 11 -55 24 -25 13 -40 24 -35 24 6 0 30 -11 55 -24z
m230 -110 c94 -47 170 -87 170 -90 0 -5 -339 162 -349 171 -15 14 30 -6 179
-81z m-272 -15 c51 -24 91 -45 89 -47 -2 -2 -51 19 -108 47 -124 60 -112 60
19 0z m184 -87 c26 -13 48 -25 48 -27 0 -7 -113 44 -125 55 -12 13 11 4 77
-28z m348 -39 c0 -2 -13 2 -30 11 -16 9 -30 18 -30 21 0 2 14 -2 30 -11 17 -9
30 -18 30 -21z m-97 -96 c48 -27 87 -52 87 -55 0 -3 -19 6 -42 20 -24 13 -82
46 -130 72 -49 26 -88 49 -88 51 0 6 64 -27 173 -88z m167 56 c0 -2 -13 2 -30
11 -16 9 -30 18 -30 21 0 2 14 -2 30 -11 17 -9 30 -18 30 -21z m50 -30 c0 -2
-9 0 -20 6 -11 6 -20 13 -20 16 0 2 9 0 20 -6 11 -6 20 -13 20 -16z m98 -57
c34 -21 62 -41 62 -44 0 -3 -10 1 -22 9 -13 9 -47 30 -75 47 -29 18 -53 35
-53 37 0 6 3 4 88 -49z m-78 -113 c0 -2 -9 0 -20 6 -11 6 -20 13 -20 16 0 2 9
0 20 -6 11 -6 20 -13 20 -16z m50 -30 c0 -2 -9 0 -20 6 -11 6 -20 13 -20 16 0
2 9 0 20 -6 11 -6 20 -13 20 -16z m271 -21 c13 -16 12 -17 -3 -4 -10 7 -18 15
-18 17 0 8 8 3 21 -13z m70 -50 c13 -16 12 -17 -3 -4 -10 7 -18 15 -18 17 0 8
8 3 21 -13z m119 -89 c0 -3 -13 4 -30 16 -16 12 -30 24 -30 26 0 3 14 -4 30
-16 17 -12 30 -24 30 -26z m41 -31 c13 -16 12 -17 -3 -4 -10 7 -18 15 -18 17
0 8 8 3 21 -13z m-210 -10 c13 -16 12 -17 -3 -4 -10 7 -18 15 -18 17 0 8 8 3
21 -13z m250 -20 c13 -16 12 -17 -3 -4 -10 7 -18 15 -18 17 0 8 8 3 21 -13z
m-170 -40 c13 -16 12 -17 -3 -4 -10 7 -18 15 -18 17 0 8 8 3 21 -13z m224 -3
c10 -11 16 -20 13 -20 -3 0 -13 9 -23 20 -10 11 -16 20 -13 20 3 0 13 -9 23
-20z m60 -50 c10 -11 16 -20 13 -20 -3 0 -13 9 -23 20 -10 11 -16 20 -13 20 3
0 13 -9 23 -20z m-194 -17 c13 -16 12 -17 -3 -4 -10 7 -18 15 -18 17 0 8 8 3
21 -13z m50 -40 c13 -16 12 -17 -3 -4 -10 7 -18 15 -18 17 0 8 8 3 21 -13z
m54 -43 c10 -11 16 -20 13 -20 -3 0 -13 9 -23 20 -10 11 -16 20 -13 20 3 0 13
-9 23 -20z m295 -87 c0 -8 -9 0 -50 45 l-45 47 48 -45 c26 -24 47 -45 47 -47z
m-230 32 c13 -14 21 -25 18 -25 -2 0 -15 11 -28 25 -13 14 -21 25 -18 25 2 0
15 -11 28 -25z m1270 -49 c0 -2 -8 -10 -17 -17 -16 -13 -17 -12 -4 4 13 16 21
21 21 13z m-1180 -31 c13 -14 21 -25 18 -25 -2 0 -15 11 -28 25 -13 14 -21 25
-18 25 2 0 15 -11 28 -25z m221 -22 c13 -16 12 -17 -3 -4 -17 13 -22 21 -14
21 2 0 10 -8 17 -17z m-91 -98 c19 -19 32 -35 29 -35 -3 0 -20 16 -39 35 -19
19 -32 35 -29 35 3 0 20 -16 39 -35z m76 -77 l29 -33 -32 29 c-31 28 -38 36
-30 36 2 0 16 -15 33 -32z m155 -165 c13 -16 12 -17 -3 -4 -10 7 -18 15 -18
17 0 8 8 3 21 -13z m369 -77 c0 -2 -8 -10 -17 -17 -16 -13 -17 -12 -4 4 13 16
21 21 21 13z m-210 -111 c13 -14 21 -25 18 -25 -2 0 -15 11 -28 25 -13 14 -21
25 -18 25 2 0 15 -11 28 -25z m-1180 -723 c0 -343 3 -461 12 -470 7 -7 26 -12
43 -12 38 0 44 -5 38 -31 -5 -18 -15 -19 -175 -19 l-169 0 3 23 c2 17 11 23
38 25 19 2 41 8 47 14 10 8 13 102 13 408 0 219 -3 405 -6 414 -3 9 -24 18
-50 22 -33 5 -44 11 -44 24 0 15 11 20 58 25 31 4 84 13 117 20 33 7 63 13 68
14 4 1 7 -205 7 -457z m4289 407 c37 -13 51 -35 51 -82 0 -48 -30 -72 -91 -72
-68 0 -95 29 -90 98 2 27 45 58 92 66 3 1 20 -4 38 -10z m-6271 -24 c76 -22
82 -32 82 -146 0 -77 -1 -79 -24 -79 -21 0 -27 8 -40 53 -33 115 -162 170
-272 117 -99 -48 -110 -159 -23 -234 23 -19 91 -55 152 -81 172 -71 234 -123
259 -217 16 -62 -1 -147 -40 -203 -30 -43 -113 -98 -177 -118 -23 -7 -95 -12
-165 -12 -110 0 -132 3 -185 25 -56 24 -60 27 -59 58 3 208 2 202 28 202 20 0
25 -7 31 -37 24 -135 124 -216 244 -198 166 25 238 181 129 282 -12 12 -89 53
-169 92 -165 79 -217 124 -238 206 -14 58 -14 71 5 136 44 150 244 217 462
154z m2537 -222 c53 -120 118 -266 143 -325 26 -60 49 -102 53 -96 4 7 65 153
136 325 l128 313 156 0 c155 0 156 0 154 -22 -1 -20 -8 -23 -46 -26 -24 -2
-49 -8 -56 -14 -19 -15 -19 -771 0 -786 7 -6 33 -12 57 -14 38 -2 46 -7 48
-25 l3 -23 -200 0 -201 0 0 25 c0 23 4 25 44 25 24 0 48 6 55 13 11 13 22 737
11 737 -5 0 -75 -172 -226 -560 -83 -212 -94 -235 -115 -235 -20 0 -38 36
-181 365 -86 201 -158 371 -158 378 0 6 -3 12 -7 12 -5 0 -6 -152 -3 -338 6
-377 5 -372 71 -372 35 0 39 -3 39 -25 l0 -25 -155 0 -155 0 0 25 c0 22 4 25
38 25 21 0 47 6 58 14 18 14 19 35 27 391 6 286 5 380 -4 391 -7 8 -29 14 -55
14 -40 0 -44 2 -44 25 l0 25 144 0 143 0 98 -217z m-1854 -68 c98 -34 169
-122 189 -234 29 -162 -43 -313 -179 -374 -66 -29 -192 -35 -266 -12 -79 25
-157 97 -184 171 -28 74 -28 193 -1 267 37 98 127 175 232 197 56 12 151 5
209 -15z m3068 14 c107 -23 177 -112 188 -240 l6 -59 -212 0 -211 0 0 -38 c0
-92 47 -175 120 -212 57 -30 185 -7 238 42 21 21 23 21 40 4 16 -17 14 -20
-35 -66 -69 -63 -130 -84 -232 -78 -179 10 -281 128 -281 323 0 171 76 280
220 319 68 18 95 19 159 5z m796 0 c42 -12 105 -67 105 -93 0 -23 6 -21 58 23
60 49 101 70 154 77 94 13 184 -40 207 -121 6 -23 11 -125 11 -238 0 -118 4
-206 10 -218 8 -14 21 -19 50 -19 36 0 40 -3 40 -25 l0 -25 -171 0 -170 0 3
23 c2 17 11 23 35 25 17 2 37 9 43 17 8 9 10 78 8 225 l-3 212 -33 29 c-48 43
-112 38 -189 -14 l-33 -22 0 -206 c0 -227 2 -236 60 -241 28 -2 36 -8 38 -25
l3 -23 -170 0 -171 0 0 25 c0 22 4 25 34 25 18 0 39 6 45 14 9 10 11 74 9 225
l-3 211 -27 27 c-38 38 -106 38 -171 0 -25 -15 -49 -32 -52 -37 -12 -19 -6
-411 6 -426 6 -8 27 -14 45 -14 30 0 34 -3 34 -25 l0 -25 -170 0 -170 0 0 25
c0 22 4 25 40 25 29 0 42 5 50 19 13 25 14 446 0 471 -6 11 -26 21 -50 25 -30
5 -40 11 -40 26 0 10 3 19 8 19 20 0 190 21 210 25 21 5 22 3 22 -57 l0 -62
38 35 c93 89 165 113 257 88z m1202 -17 c78 -30 119 -67 155 -140 30 -61 33
-74 33 -162 -1 -75 -5 -105 -22 -141 -30 -66 -86 -124 -151 -156 -51 -25 -67
-28 -162 -28 -116 0 -161 15 -228 79 -59 55 -85 119 -90 221 -5 107 16 176 74
244 86 100 253 135 391 83z m1171 12 c25 -17 28 -52 11 -105 -17 -50 -24 -54
-58 -30 -17 12 -46 25 -64 28 -28 4 -40 0 -70 -27 l-37 -32 0 -198 c0 -147 3
-200 13 -208 7 -6 32 -12 56 -14 37 -2 45 -7 47 -25 l4 -23 -185 0 -185 0 4
23 c2 17 11 23 37 25 60 6 59 3 59 262 0 263 3 250 -66 250 -29 0 -34 3 -34
24 0 22 4 24 83 30 45 4 99 11 119 15 37 9 38 8 44 -25 3 -19 4 -48 2 -64 -3
-17 -3 -30 -1 -30 3 0 28 25 56 56 71 79 121 99 165 68z m-5308 -574 c8 -5 30
-10 48 -10 28 0 32 -3 32 -25 l0 -26 -122 3 -122 3 0 48 c1 26 -2 47 -6 47 -3
0 -17 -12 -31 -26 -59 -64 -164 -97 -253 -80 -46 9 -94 50 -117 101 -16 34
-19 68 -19 241 0 221 0 220 -60 226 -27 2 -36 8 -38 24 -3 19 3 22 78 28 45 4
101 9 126 13 l44 6 0 -246 c0 -243 0 -246 23 -273 19 -22 34 -28 78 -31 45 -4
63 0 109 24 l55 28 3 204 c3 223 3 221 -54 221 -23 0 -33 5 -37 19 -7 26 0 31
42 32 20 0 72 6 116 12 l80 12 5 -283 c4 -237 7 -284 20 -292z m4701 3 c6 -7
29 -13 50 -13 35 0 39 -3 39 -25 l0 -25 -170 0 -170 0 0 25 c0 22 4 25 33 25
18 0 38 5 45 12 9 9 12 78 12 249 0 260 3 249 -61 249 -24 0 -29 4 -29 25 0
22 4 25 38 26 20 0 73 6 117 12 l80 12 3 -279 c1 -186 6 -284 13 -293z"/>
<path d="M2380 4372 c-46 -25 -76 -81 -90 -167 -21 -126 10 -273 68 -327 40
-37 65 -48 116 -48 87 0 142 78 152 217 11 137 -26 259 -92 310 -45 34 -108
40 -154 15z"/>
<path d="M5520 4371 c-41 -22 -76 -80 -86 -139 l-7 -42 137 0 136 0 0 45 c0
118 -89 185 -180 136z"/>
<path d="M7440 4373 c-25 -13 -43 -35 -65 -77 -26 -54 -29 -68 -29 -160 0
-151 34 -242 107 -286 41 -26 112 -26 153 -1 94 57 113 328 33 458 -45 72
-131 101 -199 66z"/>
</g>
</svg>
